# xmcd CD database file
#
# Track frame offsets:
#	150
#	15224
#	37371
#	60817
#	74897
#	102463
#	120047
#	139774
#	156005
#	172300
#	185579
#	209828
#	220771
#	244072
#	263422
#
# Disc length: 3820 seconds
#
# Revision: 1
# Processed by: cddbd v1.5.2PL0 Copyright (c) Steve Scherf et al.
# Submitted via: CDex 1.70beta2
#
DISCID=da0eea0f
DTITLE=Louis Amstrong - The Ultimate Jazz Archive Set 09
DYEAR=2005
DGENRE=Jazz
TTITLE0=When It's Sleepy Time Down South
TTITLE1=Some Day
TTITLE2=Tin Roof Blues
TTITLE3=My Buckets Got A Hole In It
TTITLE4=Rose Room
TTITLE5=Perdido
TTITLE6=Blues For Bass
TTITLE7=Me And Brother Bill
TTITLE8=When You're Smiling (the Whole World Smiles With You)
TTITLE9=Tain't What You Do (It's The Way That Cha Do It)
TTITLE10=Don't Fence Me In
TTITLE11=C'est Si bon
TTITLE12=The Whiffenpoof Song
TTITLE13=Rockin' Chair
TTITLE14=Back O' Town Blues
EXTD=YEAR: 2005
EXTT0=
EXTT1=
EXTT2=
EXTT3=
EXTT4=
EXTT5=
EXTT6=
EXTT7=
EXTT8=
EXTT9=
EXTT10=
EXTT11=
EXTT12=
EXTT13=
EXTT14=
PLAYORDER=
